HIERARCHY
ROOT Hips
{
	OFFSET -3.958830 18.904000 13.208200
	CHANNELS 6 Xposition Yposition Zposition Zrotation Yrotation Xrotation 
	JOINT LHipJoint
	{
		OFFSET 0.000000 0.000000 0.000000
		CHANNELS 3 Zrotation Yrotation Xrotation
		JOINT LeftUpLeg
		{
			OFFSET 1.800000 -1.400000 0.085000
			CHANNELS 3 Zrotation Yrotation Xrotation
			JOINT LeftLeg
			{
				OFFSET 2.215000 -6.000000 0.000000
				CHANNELS 3 Zrotation Yrotation Xrotation
				JOINT LeftFoot
				{
					OFFSET 2.500000 -6.900000 0.000000
					CHANNELS 3 Zrotation Yrotation Xrotation
					JOINT LeftToeBase
					{
						OFFSET 0.200000 -0.500000 1.950000
						CHANNELS 3 Zrotation Yrotation Xrotation
						End Site
						{
							OFFSET 0.000000 0.000000 0.000000
						}
					}
				}
			}
		}
	}
	JOINT RHipJoint
	{
		OFFSET 0.000000 0.000000 0.000000
		CHANNELS 3 Zrotation Yrotation Xrotation
		JOINT RightUpLeg
		{
			OFFSET -1.800000 -1.400000 0.085000
			CHANNELS 3 Zrotation Yrotation Xrotation
			JOINT RightLeg
			{
				OFFSET -2.215000 -6.000000 0.000000
				CHANNELS 3 Zrotation Yrotation Xrotation
				JOINT RightFoot
				{
					OFFSET -2.500000 -6.900000 0.000000
					CHANNELS 3 Zrotation Yrotation Xrotation
					JOINT RightToeBase
					{
						OFFSET -0.200000 -0.500000 1.950000
						CHANNELS 3 Zrotation Yrotation Xrotation
						End Site
						{
							OFFSET 0.000000 0.000000 0.000000
						}
					}
				}
			}
		}
	}
	JOINT LowerBack
	{
		OFFSET 0.000000 0.000000 0.000000
		CHANNELS 3 Zrotation Yrotation Xrotation
		JOINT Spine
		{
			OFFSET -0.087000 1.940000 -0.288900
			CHANNELS 3 Zrotation Yrotation Xrotation
			JOINT Spine1
			{
				OFFSET 0.000000 1.950000 0.060000
				CHANNELS 3 Zrotation Yrotation Xrotation
				JOINT Neck
				{
					OFFSET 0.000000 0.000000 0.000000
					CHANNELS 3 Zrotation Yrotation Xrotation
					JOINT Neck1
					{
						OFFSET 0.000000 1.600000 0.340000
						CHANNELS 3 Zrotation Yrotation Xrotation
						JOINT Head
						{
							OFFSET 0.000000 1.667000 -0.240000
							CHANNELS 3 Zrotation Yrotation Xrotation
							End Site
							{
								OFFSET 0.000000 0.000000 0.000000
							}
						}
					}
				}
				JOINT LeftShoulder
				{
					OFFSET 0.000000 0.000000 0.000000
					CHANNELS 3 Zrotation Yrotation Xrotation
					JOINT LeftArm
					{
						OFFSET 2.700000 1.550000 -0.730000
						CHANNELS 3 Zrotation Yrotation Xrotation
						JOINT LeftForeArm
						{
							OFFSET 5.450000 0.000000 0.000000
							CHANNELS 3 Zrotation Yrotation Xrotation
							JOINT LeftHand
							{
								OFFSET 3.450000 0.000000 0.000000
								CHANNELS 3 Zrotation Yrotation Xrotation
								JOINT LeftHandIndex1
								{
									OFFSET 0.750000 0.000000 0.000000
									CHANNELS 3 Zrotation Yrotation Xrotation
									End Site
									{
										OFFSET 0.000000 0.000000 0.000000
									}
								}
							}
						}
					}
				}
				JOINT RightShoulder
				{
					OFFSET 0.000000 0.000000 0.000000
					CHANNELS 3 Zrotation Yrotation Xrotation
					JOINT RightArm
					{
						OFFSET -2.700000 1.550000 -0.730000
						CHANNELS 3 Zrotation Yrotation Xrotation
						JOINT RightForeArm
						{
							OFFSET -5.450000 0.000000 0.000000
							CHANNELS 3 Zrotation Yrotation Xrotation
							JOINT RightHand
							{
								OFFSET -3.450000 0.000000 0.000000
								CHANNELS 3 Zrotation Yrotation Xrotation
								JOINT RightHandIndex1
								{
									OFFSET -0.750000 0.000000 0.000000
									CHANNELS 3 Zrotation Yrotation Xrotation
									End Site
									{
										OFFSET 0.000000 0.000000 0.000000
									}
								}
							}
						}
					}
				}
			}
		}
	}
}
MOTION
Frames: 14
Frame Time: 0.016667
0.225690 16.586830 -0.832920 -10.335864 -29.012877 3.155445 -15.418410 10.671953 1.762831 5.982575 -1.687158 -5.577117 -9.811661 4.165673 -0.101208 -0.648862 4.196042 3.222696 0.518410 0.444170 0.389520 18.964649 -6.122146 8.164280 16.835301 33.696747 -75.292052 -10.291812 -0.576711 73.869071 -1.763891 -10.408697 0.726112 0.452900 0.326910 0.300560 -5.008116 -2.428120 -9.376368 21.291275 -7.165097 25.253938 -3.790523 0.742091 11.253763 -4.124945 -1.184160 -9.310567 -4.082028 0.220158 27.048861 -5.844990 3.475100 -13.394460 -16.840109 -24.663925 -1.536616 7.400704 -31.612520 -11.392869 74.921532 -24.217080 -21.122789 -4.132690 2.790102 0.321340 0.295700 0.036730 0.205620 24.111324 19.136712 10.695874 49.581401 -5.434115 -8.674832 -1.399133 20.682620 -2.010170 1.930566 -1.519020 -0.226060 0.337840 -0.024740 -0.128380 
0.229290 16.578440 -0.824600 -10.099846 -28.292917 2.833695 -15.437912 10.725545 1.753745 5.748546 -1.632717 -5.430981 -9.829218 4.228433 0.136585 -0.637812 4.217863 3.220439 0.512480 0.438560 0.375940 18.948944 -6.087208 8.127513 16.267937 33.878957 -76.795998 -11.170552 -0.474421 77.532692 -1.913203 -11.106153 0.537488 0.450550 0.339900 0.299680 -4.935079 -2.633239 -9.368869 20.940500 -7.513214 25.555264 -3.564596 0.188754 10.677038 -4.232559 -1.437097 -9.030353 -4.494719 0.171608 26.503280 -5.707870 3.204640 -13.146300 -16.482300 -23.572347 -1.854536 7.013772 -32.411304 -11.044663 73.915483 -23.948954 -20.567796 -4.142980 2.797496 0.308710 0.301990 0.024960 0.209820 23.992260 18.037206 10.459138 48.889213 -6.288848 -9.511780 0.948762 23.493773 -1.883436 1.894026 -1.531425 -0.224950 0.340000 -0.020760 -0.120030 
0.233550 16.570210 -0.818210 -9.966770 -27.857151 2.782056 -15.446958 10.762090 1.726647 5.565855 -1.614273 -5.621892 -9.815260 4.308998 0.633953 -0.637122 4.216795 3.226314 0.503010 0.427720 0.354850 18.944619 -6.056229 8.125564 15.391974 34.416435 -78.827734 -11.276208 -0.692247 80.415505 -2.017548 -11.632914 0.397267 0.446760 0.360440 0.299720 -4.901469 -2.768756 -9.355058 20.832755 -7.867925 25.571169 -3.489857 -0.194387 10.113604 -4.304056 -1.838006 -8.794011 -5.135212 0.301229 26.039010 -5.479360 2.916380 -12.696580 -16.580590 -22.587862 -2.100986 6.320070 -32.959014 -10.562857 73.593606 -24.153971 -20.506751 -4.150666 2.803111 0.292920 0.311490 0.006390 0.215210 24.255761 17.193129 10.259302 47.933599 -6.914624 -9.838727 3.079908 25.027701 -1.635995 1.873698 -1.548530 -0.225350 0.341900 -0.012260 -0.109290 
0.237790 16.561010 -0.811260 -9.846493 -27.452989 2.897725 -15.446433 10.785257 1.705819 5.445878 -1.645445 -6.041105 -9.937206 4.397781 1.187417 -0.644627 4.214115 3.233361 0.497190 0.422660 0.332110 18.945867 -6.052922 8.105716 14.278462 34.890361 -81.039687 -11.069386 -1.174556 82.999828 -2.107059 -12.099005 0.277557 0.450060 0.385120 0.296230 -4.889937 -2.846216 -9.329841 20.868490 -8.185158 25.289515 -3.556339 -0.498932 9.646717 -4.347455 -2.205011 -8.592118 -5.704005 0.444635 25.618019 -5.108790 2.582960 -12.277810 -16.724776 -21.743298 -2.247327 5.279228 -33.300474 -10.000996 74.008898 -24.722979 -20.966977 -4.151689 2.799377 0.279650 0.321670 -0.012560 0.225790 24.500420 16.496733 10.016583 47.335845 -7.199921 -9.824774 4.349278 25.433713 -1.449560 1.865908 -1.558125 -0.230870 0.351530 -0.006250 -0.097460 
0.244710 16.552950 -0.806200 -9.668765 -27.096396 2.974894 -15.443861 10.806317 1.696641 5.332381 -1.702422 -6.523368 -10.190283 4.503741 1.779956 -0.658119 4.220336 3.236628 0.500420 0.424450 0.324280 18.945300 -6.066056 8.071426 12.866992 35.263089 -83.403893 -10.601926 -1.838793 85.355897 -2.188004 -12.516510 0.169548 0.459830 0.402220 0.291290 -4.879358 -2.896904 -9.303649 20.820167 -8.422361 24.950515 -3.621483 -0.745080 9.350382 -4.370486 -2.384456 -8.399837 -5.978240 0.516479 25.346551 -4.895070 2.354370 -11.949810 -16.817855 -21.142109 -2.357157 4.290356 -33.637407 -9.519594 74.408148 -25.112945 -21.354345 -4.149942 2.794535 0.272860 0.329660 -0.026680 0.236110 24.638864 15.940507 9.743554 47.126959 -7.156140 -9.653258 4.911682 25.268883 -1.364528 1.864856 -1.564285 -0.239790 0.361710 -0.007670 -0.092740 
0.253250 16.552200 -0.797350 -9.457851 -26.371134 2.642079 -15.429562 10.880755 1.711982 5.208438 -1.732855 -6.715020 -10.358428 4.634210 2.457566 -0.665195 4.244710 3.230137 0.503470 0.424450 0.320740 18.937057 -6.156248 7.957960 10.701322 34.964222 -86.312721 -9.429960 -3.457660 88.173414 -2.293875 -13.036012 0.033093 0.464240 0.409740 0.291470 -4.852479 -2.940559 -9.253903 20.772571 -8.838716 24.891910 -3.693595 -1.125325 9.143892 -4.341988 -2.474635 -8.253594 -6.182651 0.524294 25.348053 -4.816310 2.151230 -11.867020 -17.225290 -20.964053 -2.455099 3.643937 -33.917240 -9.206567 74.744919 -25.581323 -21.720887 -4.147560 2.784599 0.274740 0.331220 -0.030160 0.243190 24.994633 15.665853 9.567327 47.028008 -7.013170 -9.410258 4.793542 24.611685 -1.362823 1.869702 -1.560756 -0.244540 0.368000 -0.007860 -0.090670 
0.260770 16.553420 -0.790560 -9.231713 -25.888464 2.355119 -15.418338 10.924711 1.717810 5.111302 -1.775568 -6.948209 -10.587082 4.773140 3.168951 -0.674477 4.263184 3.216085 0.513840 0.434780 0.328530 18.934040 -6.219155 7.889106 9.018630 34.779460 -88.689576 -8.819774 -4.404051 90.157703 -2.368955 -13.395554 -0.066739 0.472280 0.401600 0.292500 -4.842103 -2.951252 -9.222016 20.718886 -9.099591 24.870399 -3.806694 -1.338664 9.027500 -4.323708 -2.448821 -8.101245 -6.193409 0.482456 25.430848 -4.864880 2.049780 -12.004670 -17.589832 -20.892074 -2.567998 3.302348 -34.237471 -8.992254 74.828866 -25.976455 -21.926981 -4.140863 2.779514 0.279130 0.326970 -0.026440 0.242160 25.308453 15.460050 9.380983 47.333002 -6.709566 -9.152039 4.009496 23.732377 -1.453191 1.880463 -1.556385 -0.243130 0.365510 -0.011010 -0.093970 
0.268270 16.557070 -0.785450 -9.047970 -25.392363 1.960399 -15.406252 10.971935 1.718323 5.114836 -1.823156 -7.177137 -10.860749 4.966042 4.096541 -0.683887 4.289933 3.193171 0.530200 0.453840 0.344020 18.930825 -6.282361 7.829063 7.794431 34.495596 -90.303913 -8.422190 -5.260352 92.105868 -2.453395 -13.734963 -0.154493 0.482410 0.380910 0.286840 -4.830912 -2.955638 -9.198466 20.675941 -9.342761 25.062737 -3.880293 -1.504915 8.951928 -4.299126 -2.389450 -7.984907 -6.179719 0.386574 25.651454 -4.896230 1.972180 -12.505370 -17.894832 -20.967781 -2.677788 3.092180 -34.510581 -8.897580 74.783812 -26.354437 -22.098564 -4.122868 2.766670 0.293550 0.312000 -0.013400 0.239140 25.551569 15.403945 9.249371 47.856870 -6.391575 -8.954117 3.071302 22.746907 -1.554236 1.893384 -1.541897 -0.241250 0.366760 -0.018300 -0.101250 
0.274250 16.557650 -0.777950 -9.008158 -24.886857 1.773093 -15.390558 10.997380 1.707818 5.249994 -1.927783 -7.601817 -11.162686 5.175643 5.134185 -0.694876 4.326843 3.166958 0.546340 0.466840 0.359380 18.935216 -6.341867 7.775798 7.189466 34.268512 -91.299396 -8.531782 -5.760889 93.960230 -2.535413 -14.047060 -0.234292 0.489800 0.365200 0.288480 -4.840150 -2.933355 -9.171572 20.901324 -9.635747 24.991616 -4.144369 -1.690731 8.862561 -4.226058 -2.302565 -7.867189 -6.097438 0.274709 25.832941 -4.905380 1.909790 -12.801720 -18.027318 -20.960137 -2.735379 2.884380 -34.634355 -8.792785 74.691789 -26.768428 -22.291274 -4.108927 2.761941 0.306390 0.301800 -0.003510 0.237870 25.523415 15.241421 9.044186 48.798788 -6.031417 -8.763817 2.002541 21.581679 -1.662001 1.910426 -1.530989 -0.238540 0.362740 -0.024480 -0.108600 
0.276870 16.555220 -0.770140 -9.028429 -24.548203 1.722934 -15.378688 10.997596 1.684812 5.510998 -2.079053 -8.150076 -11.532926 5.431496 6.327012 -0.694237 4.381828 3.137303 0.556850 0.479970 0.372330 18.943702 -6.372278 7.759843 6.944271 34.452966 -92.232348 -9.236515 -5.500773 95.553503 -2.597646 -14.270131 -0.290047 0.495730 0.357700 0.291970 -4.858857 -2.901414 -9.155685 21.163281 -9.843658 24.827654 -4.457441 -1.799373 8.698323 -4.120611 -2.166667 -7.671899 -5.895754 0.155251 25.932495 -5.006830 1.912800 -13.007010 -18.220668 -20.801983 -2.885115 2.880091 -34.993516 -8.638898 74.316970 -27.202973 -22.297865 -4.102916 2.750721 0.308780 0.298570 0.007200 0.238830 25.482994 14.915345 8.791794 49.733948 -5.710462 -8.545911 0.987814 20.478256 -1.746470 1.931875 -1.519368 -0.233490 0.363770 -0.031750 -0.109190 
0.279350 16.547970 -0.759860 -9.126049 -24.451694 1.955858 -15.370424 10.973425 1.660246 5.771937 -2.258915 -8.865183 -11.909723 5.672654 7.448379 -0.700388 4.442758 3.107536 0.562440 0.488970 0.368860 18.955277 -6.381114 7.758761 6.601312 34.839523 -93.264004 -9.930265 -5.056454 96.796761 -2.638047 -14.440653 -0.330334 0.504060 0.366500 0.296880 -4.889779 -2.862060 -9.138591 21.567025 -9.962481 24.404687 -4.802859 -1.817082 8.469747 -4.047239 -2.108165 -7.429277 -5.770554 0.137197 25.830030 -4.935950 1.850070 -12.944690 -18.269202 -20.334530 -3.077727 2.575677 -35.538872 -8.294704 73.958086 -27.476392 -22.240447 -4.106280 2.747812 0.303970 0.306230 0.004780 0.244720 25.346413 14.344856 8.471646 50.528821 -5.506601 -8.342254 0.273313 19.595919 -1.797294 1.942580 -1.515172 -0.232650 0.367680 -0.031330 -0.105260 
0.279180 16.538640 -0.747150 -9.302798 -24.371022 2.155080 -15.365029 10.952195 1.637685 6.151039 -2.439203 -9.476547 -12.304205 5.953213 8.600690 -0.699312 4.528845 3.065156 0.560740 0.490140 0.364000 18.963808 -6.382982 7.755918 6.580900 35.145435 -93.711847 -10.836951 -4.568035 98.189015 -2.685303 -14.634537 -0.373288 0.506790 0.370150 0.296500 -4.912485 -2.839751 -9.128505 21.998256 -10.071827 24.036829 -5.072222 -1.860930 8.268188 -3.960706 -2.072939 -7.248959 -5.700374 0.068181 25.778457 -4.932230 1.813390 -12.815000 -18.157408 -19.884897 -3.200538 2.190262 -35.905170 -7.997817 73.791120 -27.677373 -22.261581 -4.109377 2.745821 0.298280 0.311640 -0.000640 0.242960 25.035682 13.839697 8.202292 51.342139 -5.397257 -8.227992 -0.282898 18.860416 -1.825582 1.953895 -1.508446 -0.232670 0.367960 -0.026980 -0.104820 
0.279240 16.528390 -0.734360 -9.458744 -24.389007 2.243067 -15.360428 10.925076 1.615072 6.514205 -2.588647 -9.931509 -12.709988 6.258718 9.741431 -0.686075 4.628633 3.021868 0.563530 0.499980 0.361210 18.972996 -6.382654 7.757445 6.857400 35.346803 -93.537544 -11.961166 -3.985739 99.689988 -2.746834 -14.838571 -0.410477 0.512730 0.372610 0.287930 -4.942187 -2.807579 -9.124779 22.430163 -10.185931 23.842891 -5.375645 -1.923273 8.112637 -3.928162 -2.101312 -7.130152 -5.753033 0.005869 25.763678 -4.719220 1.700100 -12.854910 -17.913421 -19.509192 -3.271246 2.029046 -36.014444 -7.872920 73.673668 -27.774901 -22.254217 -4.102748 2.738382 0.294850 0.309300 -0.000180 0.247510 24.704714 13.453131 7.980887 52.049089 -5.277971 -8.137149 -0.812638 18.160433 -1.845313 1.969154 -1.496205 -0.233270 0.378920 -0.030200 -0.099940 
0.278650 16.516780 -0.723260 -9.608646 -24.588700 2.420842 -15.356321 10.889660 1.592478 6.828677 -2.741073 -10.423729 -13.049505 6.558900 10.902814 -0.674991 4.728975 2.977262 0.567470 0.513280 0.350300 18.983417 -6.379561 7.766967 7.066214 35.664711 -93.371257 -12.756321 -3.545764 100.861327 -2.795481 -15.005474 -0.442667 0.522460 0.379520 0.282050 -4.980567 -2.756971 -9.118693 22.863053 -10.238306 23.581418 -5.696684 -1.906431 8.009982 -3.947579 -2.159920 -7.060495 -5.820975 0.039566 25.657958 -4.370180 1.568160 -12.765370 -17.559309 -19.168087 -3.298098 2.101281 -35.980196 -7.833657 73.563692 -27.700885 -22.146267 -4.098683 2.745116 0.287500 0.309840 -0.004310 0.254540 24.365187 13.144067 7.784380 52.636560 -5.149789 -7.972164 -1.133336 17.266799 -1.849614 1.984737 -1.492468 -0.232670 0.385790 -0.031540 -0.091520 
